<svg xmlns="http://www.w3.org/2000/svg" xmlns:xlink="http://www.w3.org/1999/xlink" version="1.1" x="0px" y="0px" viewBox="0 0 100 100" enable-background="new 0 0 100 100" xml:space="preserve"><g><ellipse cx="37.356" cy="19.607" rx="5.757" ry="5.802"></ellipse><ellipse cx="78.426" cy="51.805" rx="3.847" ry="3.876"></ellipse><ellipse cx="19.146" cy="48.096" rx="4.179" ry="4.211"></ellipse><path d="M95.064,73.695L82.357,56.994l-7.933-0.011l-3.91-27.627L50.76,29.333l-0.904,10.836l-1.588-12.715l-21.663-0.023   l-2.391,26.207l-10.658-0.015L5.529,71.566l2.736-0.111l4.884-9.781l0.921,0.021l-1.843,20.504l2.532,0.002l1.627,12.668   l2.609,0.06l0.048-12.728h1.111L20.12,94.869h2.393l1.835-12.668l2.677-0.011l-2.803-20.534h0.946l3.312,6.048l-1.39,27.091h5.257   l5.259-33.304L45.513,95h4.418l-4.682-52.822h1.242l2.099,20.137l3.634-3.184l-0.578-4.626l1.111-12.386l1.224,0.033l-2.446,32.561   l3.361,0.004l2.161,20.117l3.465,0.095l0.061-20.212h1.473l-0.042,20.117h3.176l2.438-20.117l3.555-0.018l-0.829-7.268l2.279-2.096   l-1.617,29.446h3.479l3.767-18.641l4.943,18.755h2.924l-2.198-29.774l9.283,10.122L95.064,73.695z M28.768,62.1l-1.328-2.703   l1.139-17.192l1.208,0.032L28.768,62.1z M69.748,62.11l-2.284-20.017h1.254l2.099,18.556L69.748,62.11z"></path><path d="M63.077,17.095c-0.489-0.21-1.018-0.349-1.575-0.405c-2.953-0.293-5.585,1.879-5.88,4.854   c-0.295,2.975,1.858,5.625,4.811,5.919c1.874,0.186,3.617-0.625,4.716-2.002c1.493,1.254,3.387,5.35,6.38-0.179   C67.705,28.346,67.839,18.751,63.077,17.095z"></path></g></svg>