<svg xmlns="http://www.w3.org/2000/svg" xmlns:xlink="http://www.w3.org/1999/xlink" version="1.1" x="0px" y="0px" viewBox="0 0 216 216" enable-background="new 0 0 216 216" xml:space="preserve"><g><path d="M75.045,92.521c5.548-7.457,8.141-29.322-17.42-48.086c0,0,40.648,17.708,43.789,69.434   c3.356,55.303-61.359,87.617-74.825,89.221c0,0,102.185-63.119-5.914-105.987C11.022,93.281,62.835,108.932,75.045,92.521z"></path><path d="M67.444,69.823c4.527,6.313,4.204,14.143-0.72,17.486c-4.925,3.342-12.585,0.934-17.113-5.376   c-4.522-6.314-4.197-14.143,0.727-17.487C55.263,61.104,62.92,63.511,67.444,69.823z"></path><path d="M67.344,153.178c-1.611,3.762-6.333,14.471-9.004,17.344c-3.253,3.504-16.052,9.58-23.071,9.711l0.07-0.062   C52.671,168.918,60.69,162.525,67.344,153.178z"></path><path d="M128.706,57.535c-6.29-6.878-11.123-28.38,12.372-49.548c0,0-38.611,21.596-36.399,73.366   c2.367,55.354,70.095,81.176,83.656,81.459c0,0-125.133-43.781,7.601-112.211C205.148,45.853,142.552,72.667,128.706,57.535z"></path><path d="M132.509,37.682c-4.45,6.36-4.039,14.184,0.925,17.475c4.962,3.291,12.592,0.801,17.045-5.563   c4.451-6.361,4.04-14.184-0.923-17.475C144.594,28.83,136.963,31.324,132.509,37.682z"></path><path d="M136.581,117.793c1.923,3.299,5.386,12.098,8.707,14.789c4.041,3.281,22.421,10.406,31.427,11.336l-0.085-0.055   C154.812,132.533,144.758,126.305,136.581,117.793z"></path></g></svg>