<svg xmlns="http://www.w3.org/2000/svg" xmlns:xlink="http://www.w3.org/1999/xlink" version="1.1" x="0px" y="0px" viewBox="0 0 100 100" enable-background="new 0 0 100 100" xml:space="preserve"><path fill-rule="evenodd" clip-rule="evenodd" d="M78.216,25.246h-7.725h-7.725c-4.595,0-8.319,3.725-8.319,8.319v21.391  c0,1.641,1.33,2.971,2.972,2.971c1.641,0,2.971-1.33,2.971-2.971V35.348h1.188v51.695h0.013c-0.008,0.099-0.013,0.197-0.013,0.297  c0,2.133,1.729,3.862,3.861,3.862c2.134,0,3.863-1.729,3.863-3.862c0-0.1-0.005-0.199-0.013-0.297h0.013v-29.71h1.188h1.188v29.71  h0.013c-0.008,0.099-0.013,0.197-0.013,0.297c0,2.133,1.729,3.862,3.861,3.862c2.134,0,3.863-1.729,3.863-3.862  c0-0.1-0.006-0.199-0.013-0.297h0.013V35.348h1.188v19.608c0,1.641,1.33,2.971,2.971,2.971s2.971-1.33,2.971-2.971V33.565  C86.534,28.971,82.81,25.246,78.216,25.246z"></path><circle fill-rule="evenodd" clip-rule="evenodd" cx="70.491" cy="16.927" r="7.13"></circle><path fill-rule="evenodd" clip-rule="evenodd" d="M32.48,23.752v0.009c0.06,0,0.119,0,0.179-0.002  c0.06,0.001,0.12,0.002,0.179,0.002v-0.009c3.771-0.187,6.772-3.304,6.772-7.122s-3-6.935-6.772-7.122V9.5  c-0.06,0-0.119,0.001-0.179,0.002C32.6,9.501,32.54,9.5,32.48,9.5v0.009c-3.772,0.187-6.773,3.304-6.773,7.122  S28.708,23.565,32.48,23.752z"></path><path fill-rule="evenodd" clip-rule="evenodd" d="M44.908,32.112c-1.108-3.503-3.439-6.411-7.081-6.562v-0.007h-5.122h-0.093H27.49  v0.007c-3.641,0.15-5.972,3.059-7.081,6.562c0,0-6.807,22.695-6.835,22.792c-0.416,1.417,0.397,2.902,1.815,3.317  c1.417,0.415,2.902-0.398,3.317-1.815c0.028-0.096,6.425-21.949,6.425-21.949h1.418l-9.161,30.898h8.319v23.174  c0,1.641,1.331,2.971,2.972,2.971c1.641,0,2.971-1.33,2.971-2.971V65.355h0.962h0.093h0.962v23.174c0,1.641,1.331,2.971,2.972,2.971  c1.641,0,2.971-1.33,2.971-2.971V65.355h8.319l-9.16-30.898h1.417c0,0,6.397,21.853,6.425,21.949c0.415,1.417,1.9,2.23,3.318,1.815  c1.417-0.415,2.229-1.9,1.814-3.317C51.716,54.807,44.908,32.112,44.908,32.112z"></path></svg>