<svg xmlns="http://www.w3.org/2000/svg" xmlns:xlink="http://www.w3.org/1999/xlink" version="1.1" x="0px" y="0px" viewBox="0 0 50 50" enable-background="new 0 0 50 50" xml:space="preserve"><g><g><path d="M14.537,7.982c0,1.923-1.565,3.481-3.488,3.481c-1.926,0-3.489-1.559-3.489-3.481c0-1.922,1.563-3.48,3.489-3.48    C12.971,4.501,14.537,6.06,14.537,7.982z"></path></g></g><g><g><path d="M11.414,31.838l0.753,12.855c0,0.445,0.366,0.816,0.813,0.816c0.452,0,0.82-0.371,0.82-0.816l0.696-12.855h2.273    l-2.347-14.41l4.73,9.423c0.173,0.414,0.653,0.611,1.07,0.435c0.415-0.176,0.612-0.652,0.435-1.074c0,0-3.465-9.374-4.325-11.122    c-0.856-1.749-1.697-2.812-4.954-2.812h-0.665c-3.246,0-4.098,1.063-4.95,2.812c-0.854,1.748-4.322,11.122-4.322,11.122    c-0.18,0.422,0.015,0.897,0.426,1.074c0.417,0.176,0.896-0.021,1.077-0.435l4.729-9.423l-2.352,14.41h2.27l0.705,12.855    c0,0.445,0.368,0.816,0.813,0.816c0.461,0,0.826-0.371,0.826-0.816l0.701-12.855H11.414z"></path></g></g><g><g><path d="M39.194,4.492c-1.926,0-3.491,1.557-3.491,3.481c0,1.926,1.565,3.484,3.491,3.484c1.921,0,3.479-1.558,3.479-3.484    C42.673,6.049,41.115,4.492,39.194,4.492z"></path></g></g><g><g><path d="M42.807,24.995l0.231-7.576l4.255,9.424c0.177,0.412,0.659,0.612,1.072,0.433c0.421-0.178,0.616-0.655,0.439-1.076    c0,0-2.996-9.375-3.853-11.12c-0.856-1.747-2.176-2.81-5.427-2.81h-0.667c-3.25,0-4.574,1.062-5.43,2.81    c-0.851,1.744-3.847,11.12-3.847,11.12c-0.176,0.421,0.016,0.898,0.433,1.076c0.417,0.179,0.899-0.021,1.066-0.433l4.261-9.424    l0.232,7.576l-0.672,19.049c-0.047,0.753,0.52,1.409,1.269,1.458c0.036,0.007,0.07,0.007,0.098,0.007    c0.714,0,1.317-0.55,1.373-1.274l1.544-15.687l1.561,15.687c0.044,0.724,0.649,1.274,1.357,1.274c0.034,0,0.066,0,0.099-0.007    c0.758-0.049,1.317-0.705,1.271-1.458l-0.673-19.049H42.807z"></path></g></g><g><g><path d="M25.118,25.669c-1.184,0-2.143,0.952-2.143,2.133s0.959,2.134,2.143,2.134c1.182,0,2.141-0.953,2.141-2.134    S26.3,25.669,25.118,25.669z"></path></g></g><g><g><path d="M25.118,38.255c0,0,0.961,6.684,0.961,6.691c0.133,0.327,0.44,0.562,0.813,0.562c0.385,0,0.707-0.256,0.823-0.606    c0.007-0.019,0.029-0.414,0.007-0.479l-0.395-8.217l0.127-2.82c0.11-0.959,0.131-0.672,1.221-1.324    c1.116-0.668,3.009-3.605,3.102-3.748c0.091-0.148,0.262-0.405,0.297-0.569c0.054-0.297-0.136-0.579-0.431-0.637    c-0.222-0.038-0.41,0.081-0.552,0.236c-0.146,0.158-2.326,3.061-3.962,3.338c-0.367-0.052-0.763-0.247-1.806-0.247h-0.411    c-1.036,0-1.432,0.194-1.803,0.247c-1.636-0.278-3.814-3.181-3.967-3.338c-0.14-0.155-0.321-0.273-0.548-0.236    c-0.293,0.059-0.488,0.34-0.43,0.637c0.032,0.164,0.205,0.42,0.297,0.569c0.096,0.143,1.99,3.079,3.101,3.748    c1.092,0.652,1.117,0.365,1.222,1.324l0.125,2.82l-0.393,8.217c-0.022,0.064,0,0.459,0.016,0.479    c0.115,0.35,0.429,0.606,0.817,0.606c0.368,0,0.683-0.235,0.807-0.562C24.154,44.939,25.118,38.255,25.118,38.255"></path></g></g></svg>