<svg xmlns="http://www.w3.org/2000/svg" xmlns:xlink="http://www.w3.org/1999/xlink" version="1.1" x="0px" y="0px" viewBox="0 0 100 125" enable-background="new 0 0 100 100" xml:space="preserve"><g transform="translate(0.000000,1129.000000) scale(0.100000,-0.100000)"><path d="M768.6,11243.8c-6.9-2.8-18.1-14.1-20.7-21c-2.4-6.6-2.4-13.4,0.1-20.1c1.7-4.6,3.9-7.2,17.8-21.3l15.8-16l-8.9-8.9   c-5-5-9.4-9-9.9-9s-13.2,12.3-28.4,27.5c-30.8,30.8-31.7,31.5-42.8,31.5c-9.2,0-14.1-2.4-22.8-11.5c-8-8.3-10.1-12.8-10.1-21.4   c0-6.3,1.9-11.9,5.6-16.5l2.8-3.4l-180.7-180.9c-139.2-139.4-181.2-181.9-183-185.4c-6.8-13.1-6.8-29.4,0.1-42.2   c1.4-2.7,7.7-10,15.1-17.5l12.6-13l-7.9-7.8c-4.4-4.3-8.7-9.3-9.6-11.1c-4-7.6-3.8-18.3,0.3-25.4l2.2-3.8l-89.6-89.7l-89.5-89.7   l7.7-7.7l7.7-7.7l89.5,89.5l89.5,89.5l4.1-2.3c6.5-3.6,12.8-4.5,19.6-2.8c7,1.8,11.5,4.9,19.3,13.2l6.1,6.5l11-10.7   c12.3-12,18.5-15.8,28.8-17.9c9.5-2,19.1-0.5,29.1,4.3c2.4,1.2,63.3,61.5,184.9,183l181.2,181.2l5-4.5c8.7-7.9,19.9-9.9,29.9-5.3   c6.3,2.9,16.8,13.2,19.6,19.2c2.8,6.2,2.8,17.1-0.2,22.8c-1.4,2.6-11.8,13.8-29.7,31.7l-27.7,27.8l9.5,9.5l9.4,9.5l15.4-15.2   c9-9,16.9-16,19.4-17.2c2.8-1.4,6.1-2.3,10.9-2.5c6-0.4,7.6-0.1,12.1,2c6.3,2.9,16.4,12.4,19.5,18.3c2.9,5.8,3.2,18.6,0.5,24.2   c-2.5,5.3-111,113.9-117.2,117.3C785.3,11246,775.6,11246.5,768.6,11243.8z M835.4,11170.1c46.3-46.2,53.9-54.2,53.9-56.4   c0-1.9-1.2-3.8-4.4-6.9c-3.2-3.2-5-4.4-6.9-4.4c-2.3,0-10.2,7.6-56.4,53.9c-42.1,42-53.9,54.3-53.9,56.1c0,3.1,8.6,11.7,11.7,11.7   C781.1,11224,792.6,11213,835.4,11170.1z M771.8,11106.6c57.6-57.6,78.7-79.1,78.7-80.7c0-3.2-8-11-11.4-11   c-2.3,0-12.7,10.1-80.8,78.1c-63.7,63.7-78.2,78.7-78.2,80.6c0,2.7,8.7,11.6,11.4,11.6C692.5,11185.3,725.8,11152.7,771.8,11106.6z    M805.4,11120.8l-7.7-7.7l-9.5,9.5l-9.5,9.5l7.7,7.7l7.7,7.7l9.5-9.5l9.5-9.5L805.4,11120.8z M799.1,11020.9c0-0.5-3.8-4.8-8.4-9.4   l-8.3-8.3l-119.6,0.2l-119.5,0.3l68.5,67.8l68.6,67.9l59.3-58.7C772.5,11048.3,799.1,11021.4,799.1,11020.9z M648.2,10934.7   l32.4-32.4l-4.8-4.7l-4.7-4.8l-32.6,32.6l-32.7,32.7l4.5,4.5c2.4,2.4,4.7,4.5,5,4.5S630.3,10952.6,648.2,10934.7z M635.8,10857.5   l-4.8-4.8l-32.6,32.6l-32.7,32.7l4.7,4.7l4.8,4.8l32.6-32.6l32.7-32.7L635.8,10857.5z M603.6,10826.1c0-0.5-2.1-3-4.5-5.4l-4.5-4.5   l-32.7,32.7l-32.6,32.6l5,5l5,5l32.2-32.2C589,10841.5,603.6,10826.6,603.6,10826.1z M533.7,10820.3l32.4-32.4l-4.5-4.5   c-2.4-2.4-4.9-4.5-5.4-4.5c-1.2,0-64.4,63.3-64.4,64.4c0,0.9,8.1,9.5,9,9.5C501.1,10852.7,515.9,10838.1,533.7,10820.3z    M525,10746.6l-4.8-4.8l-32.6,32.6l-32.7,32.7l4.7,4.7l4.8,4.8l32.6-32.6l32.7-32.7L525,10746.6z M457.1,10743.7l32.4-32.4   l-4.8-4.7l-4.7-4.8l-32.6,32.6l-32.7,32.7l4.5,4.5c2.4,2.4,4.7,4.5,5,4.5S439.3,10761.5,457.1,10743.7z M354.4,10689.4   c9.4-9.1,9.5-9.9,2.3-17.1c-7.4-7.3-8.6-7.1-17.5,1.7c-8.9,8.9-9,9.8-1.3,17.2c3.2,3.1,6.5,5.6,7.3,5.6   C346.2,10696.8,350.3,10693.5,354.4,10689.4z"/><path d="M126.5,10470.4c-12.4-21.4-26.1-48.6-31.7-62.9c-5.1-13.2-6.4-20.4-5.1-28.1c1.5-8.9,5-15.6,11.4-22   c9.3-9.2,21.5-13.3,33.4-11.4c18.7,3.1,32.6,17.8,33.6,35.7c0.3,4-0.1,9.3-0.7,12.2c-2.6,11.7-14.7,38.4-29.3,64.5   C128.1,10476.2,129.2,10475.1,126.5,10470.4z M142.6,10399.8c1.7-4.4,3.4-10.4,3.7-13.2c1.6-16.5-18.1-25.7-29.9-13.8   c-5.1,5.1-6.4,10.2-4.4,17.8c1.4,5.5,8.7,23.1,14.2,33.6l2.7,5.4l5.3-10.8C137.1,10412.8,140.8,10404.3,142.6,10399.8z"/></g><text x="0" y="115" fill="#ffffff" font-size="5px" font-weight="bold" font-family="'Helvetica Neue', Helvetica, Arial-Unicode, Arial, Sans-serif"></text><text x="0" y="120" fill="#ffffff" font-size="5px" font-weight="bold" font-family="'Helvetica Neue', Helvetica, Arial-Unicode, Arial, Sans-serif"></text></svg>